<svg width="19" height="19" viewBox="0 0 19 19" fill="none" xmlns="http://www.w3.org/2000/svg">
<g clip-path="url(#clip0_0_109)">
<path d="M9.50001 15.8333C11.1797 15.8333 12.7906 15.1661 13.9784 13.9783C15.1661 12.7906 15.8333 11.1797 15.8333 9.49998C15.8333 7.82028 15.1661 6.20937 13.9784 5.02164C12.7906 3.83391 11.1797 3.16665 9.50001 3.16665C7.82031 3.16665 6.2094 3.83391 5.02167 5.02164C3.83394 6.20937 3.16668 7.82028 3.16668 9.49998C3.16668 11.1797 3.83394 12.7906 5.02167 13.9783C6.2094 15.1661 7.82031 15.8333 9.50001 15.8333ZM9.50001 17.4166C5.12764 17.4166 1.58334 13.8724 1.58334 9.49998C1.58334 5.1276 5.12764 1.58331 9.50001 1.58331C13.8724 1.58331 17.4167 5.1276 17.4167 9.49998C17.4167 13.8724 13.8724 17.4166 9.50001 17.4166ZM7.03793 10.4262L5.06034 9.80952C4.63284 9.6789 4.63047 9.3844 5.15614 9.17302L12.8614 6.19636C13.3087 6.01427 13.5621 6.24465 13.4172 6.82177L12.1054 13.0126C12.0136 13.4536 11.7483 13.5589 11.3802 13.3554L9.36068 11.8607L8.41939 12.7696C8.3228 12.863 8.24443 12.9429 8.09559 12.9627C7.94755 12.9833 7.82564 12.939 7.73618 12.6936L7.04743 10.4207L7.03793 10.4262Z" fill="#E0BEA2"/>
</g>
<defs>
<clipPath id="clip0_0_109">
<rect width="19" height="19" fill="white"/>
</clipPath>
</defs>
</svg>
